<svg width="22" height="22" viewBox="0 0 22 22" fill="none" xmlns="http://www.w3.org/2000/svg">
<path d="M2.75 20.1667H19.25" stroke="#3D3D3D" stroke-width="1.5" stroke-linejoin="round"/>
<path d="M5.13331 7.68164H3.66667C3.1625 7.68164 2.75 8.09414 2.75 8.59831V16.5C2.75 17.0041 3.1625 17.4166 3.66667 17.4166H5.13331C5.63748 17.4166 6.04998 17.0041 6.04998 16.5V8.59831C6.04998 8.09414 5.63748 7.68164 5.13331 7.68164Z" stroke="#3D3D3D" stroke-width="1.5" stroke-linejoin="round"/>
<path d="M11.7333 4.75732H10.2667C9.76251 4.75732 9.35001 5.16982 9.35001 5.67399V16.4998C9.35001 17.004 9.76251 17.4165 10.2667 17.4165H11.7333C12.2375 17.4165 12.65 17.004 12.65 16.4998V5.67399C12.65 5.16982 12.2375 4.75732 11.7333 4.75732Z" stroke="#3D3D3D" stroke-width="1.5" stroke-linejoin="round"/>
<path d="M18.3333 1.83325H16.8667C16.3625 1.83325 15.95 2.24575 15.95 2.74992V16.4999C15.95 17.0041 16.3625 17.4166 16.8667 17.4166H18.3333C18.8375 17.4166 19.25 17.0041 19.25 16.4999V2.74992C19.25 2.24575 18.8375 1.83325 18.3333 1.83325Z" stroke="#3D3D3D" stroke-width="1.5" stroke-linejoin="round"/>
</svg>
