<svg width="22" height="22" viewBox="0 0 22 22" fill="none" xmlns="http://www.w3.org/2000/svg">
<path d="M16.9741 11.7145L17.7169 11.8178L17.7169 11.8178L16.9741 11.7145ZM16.7336 13.4424L17.4765 13.5458L17.4765 13.5458L16.7336 13.4424ZM5.26636 13.4424L6.00921 13.339L6.00921 13.339L5.26636 13.4424ZM5.02589 11.7145L4.28305 11.8178L4.28305 11.8178L5.02589 11.7145ZM8.41833 19.9253L8.12674 20.6163L8.12674 20.6163L8.41833 19.9253ZM5.93548 17.0135L6.63947 16.7549L6.63947 16.7549L5.93548 17.0135ZM16.0645 17.0135L16.7685 17.2722L16.7685 17.2722L16.0645 17.0135ZM13.5816 19.9253L13.2901 19.2344L13.2901 19.2344L13.5816 19.9253ZM5.32996 8.17898C5.29078 7.76662 4.92474 7.4641 4.51238 7.50328C4.10003 7.54246 3.79751 7.9085 3.83669 8.32086L5.32996 8.17898ZM18.1633 8.32086C18.2025 7.9085 17.9 7.54246 17.4876 7.50328C17.0752 7.4641 16.7092 7.76662 16.67 8.17898L18.1633 8.32086ZM18.3333 7.16659C18.7475 7.16659 19.0833 6.8308 19.0833 6.41659C19.0833 6.00237 18.7475 5.66659 18.3333 5.66659V7.16659ZM3.66666 5.66659C3.25244 5.66659 2.91666 6.00237 2.91666 6.41659C2.91666 6.8308 3.25244 7.16659 3.66666 7.16659V5.66659ZM8.41666 16.4999C8.41666 16.9141 8.75244 17.2499 9.16666 17.2499C9.58087 17.2499 9.91666 16.9141 9.91666 16.4999H8.41666ZM9.91666 9.16658C9.91666 8.75237 9.58087 8.41658 9.16666 8.41658C8.75244 8.41658 8.41666 8.75237 8.41666 9.16658H9.91666ZM12.0833 16.4999C12.0833 16.9141 12.4191 17.2499 12.8333 17.2499C13.2475 17.2499 13.5833 16.9141 13.5833 16.4999H12.0833ZM13.5833 9.16658C13.5833 8.75237 13.2475 8.41658 12.8333 8.41658C12.4191 8.41658 12.0833 8.75237 12.0833 9.16658H13.5833ZM14.6667 6.41659V7.16659H15.4167V6.41659H14.6667ZM7.33332 6.41659H6.58332V7.16659H7.33332V6.41659ZM16.2312 11.6111L15.9908 13.339L17.4765 13.5458L17.7169 11.8178L16.2312 11.6111ZM6.00921 13.339L5.76873 11.6111L4.28305 11.8178L4.52352 13.5458L6.00921 13.339ZM11 19.4166C9.59264 19.4166 9.10815 19.4024 8.70992 19.2344L8.12674 20.6163C8.87186 20.9308 9.72738 20.9166 11 20.9166V19.4166ZM4.52352 13.5458C4.77947 15.3849 4.91965 16.4234 5.23149 17.2722L6.63947 16.7549C6.39715 16.0953 6.27597 15.2559 6.00921 13.339L4.52352 13.5458ZM8.70992 19.2344C7.88467 18.8861 7.10826 18.0308 6.63947 16.7549L5.23149 17.2722C5.799 18.8168 6.81392 20.0624 8.12674 20.6163L8.70992 19.2344ZM15.9908 13.339C15.724 15.2559 15.6028 16.0953 15.3605 16.7549L16.7685 17.2722C17.0803 16.4234 17.2205 15.3849 17.4765 13.5458L15.9908 13.339ZM11 20.9166C12.2726 20.9166 13.1281 20.9308 13.8732 20.6163L13.2901 19.2344C12.8918 19.4024 12.4073 19.4166 11 19.4166V20.9166ZM15.3605 16.7549C14.8917 18.0308 14.1153 18.8861 13.2901 19.2344L13.8732 20.6163C15.1861 20.0624 16.201 18.8168 16.7685 17.2722L15.3605 16.7549ZM5.76873 11.6111C5.56504 10.1475 5.41324 9.05544 5.32996 8.17898L3.83669 8.32086C3.92377 9.23739 4.08114 10.367 4.28305 11.8178L5.76873 11.6111ZM17.7169 11.8178C17.9188 10.367 18.0762 9.23738 18.1633 8.32086L16.67 8.17898C16.5867 9.05544 16.4349 10.1475 16.2312 11.6111L17.7169 11.8178ZM18.3333 5.66659H3.66666V7.16659H18.3333V5.66659ZM9.91666 16.4999V9.16658H8.41666V16.4999H9.91666ZM13.5833 16.4999V9.16658H12.0833V16.4999H13.5833ZM13.9167 5.49992V6.41659H15.4167V5.49992H13.9167ZM14.6667 5.66659H7.33332V7.16659H14.6667V5.66659ZM8.08332 6.41659V5.49992H6.58332V6.41659H8.08332ZM11 2.58325C12.6108 2.58325 13.9167 3.88909 13.9167 5.49992H15.4167C15.4167 3.06066 13.4392 1.08325 11 1.08325V2.58325ZM11 1.08325C8.56073 1.08325 6.58332 3.06066 6.58332 5.49992H8.08332C8.08332 3.88909 9.38916 2.58325 11 2.58325V1.08325Z" fill="#FF000A"/>
</svg>
