<svg width="22" height="22" viewBox="0 0 22 22" fill="none" xmlns="http://www.w3.org/2000/svg">
<path d="M14.2817 10.9999C14.2817 12.8149 12.815 14.2816 11 14.2816C9.18499 14.2816 7.71832 12.8149 7.71832 10.9999C7.71832 9.18493 9.18499 7.71826 11 7.71826C12.815 7.71826 14.2817 9.18493 14.2817 10.9999Z" stroke="#3D3D3D" stroke-width="1.5" stroke-linecap="round" stroke-linejoin="round"/>
<path d="M11 18.5807C14.2358 18.5807 17.2517 16.6741 19.3508 13.3741C20.1758 12.0816 20.1758 9.90908 19.3508 8.61658C17.2517 5.31658 14.2358 3.40991 11 3.40991C7.76418 3.40991 4.74834 5.31658 2.64918 8.61658C1.82418 9.90908 1.82418 12.0816 2.64918 13.3741C4.74834 16.6741 7.76418 18.5807 11 18.5807Z" stroke="#3D3D3D" stroke-width="1.5" stroke-linecap="round" stroke-linejoin="round"/>
</svg>
