<svg width="24" height="24" viewBox="0 0 24 24" fill="none" xmlns="http://www.w3.org/2000/svg">
<path d="M5.01192 16.9642L5.9606 17.2804H5.9606L5.01192 16.9642ZM5.7611 14.7167L6.70979 15.0329L5.7611 14.7167ZM6.53415 13.4658L7.24126 14.1729L6.53415 13.4658ZM11.8686 8.13137L12.5757 8.83848L12.5757 8.83848L11.8686 8.13137ZM14.1314 8.13137L13.4243 8.83848L13.4243 8.83848L14.1314 8.13137ZM15.8686 9.86863L16.5757 9.16152V9.16152L15.8686 9.86863ZM15.8686 12.1314L16.5757 12.8385L15.8686 12.1314ZM10.5341 17.4658L9.82704 16.7587L9.82704 16.7587L10.5341 17.4658ZM9.28334 18.2389L9.59956 19.1876H9.59957L9.28334 18.2389ZM7.03578 18.9881L7.352 19.9368L7.352 19.9368L7.03578 18.9881ZM10.1241 17.8486L9.52187 17.0503L9.52186 17.0503L10.1241 17.8486ZM9.80904 18.0433L9.36433 17.1476L9.80904 18.0433ZM16.5368 10.691L17.4879 10.382L17.4879 10.382L16.5368 10.691ZM16.5368 11.309L17.4879 11.618L17.4879 11.618L16.5368 11.309ZM12.691 7.46316L12.382 6.5121L12.382 6.5121L12.691 7.46316ZM13.309 7.46316L13.618 6.5121L13.618 6.5121L13.309 7.46316ZM5.9567 14.191L6.85238 14.6357L6.85238 14.6357L5.9567 14.191ZM6.15142 13.8759L5.35311 13.2736L5.35311 13.2736L6.15142 13.8759ZM4.63922 18.7547L3.69732 19.0906L4.63922 18.7547ZM5.24525 19.3608L4.90937 20.3027L4.90937 20.3027L5.24525 19.3608ZM15.7071 4.29289C15.3166 3.90237 14.6834 3.90237 14.2929 4.29289C13.9024 4.68342 13.9024 5.31658 14.2929 5.70711L15.7071 4.29289ZM18.2929 9.70711C18.6834 10.0976 19.3166 10.0976 19.7071 9.70711C20.0976 9.31658 20.0976 8.68342 19.7071 8.29289L18.2929 9.70711ZM5.9606 17.2804L6.70979 15.0329L4.81242 14.4004L4.06323 16.648L5.9606 17.2804ZM7.24126 14.1729L12.5757 8.83848L11.1615 7.42426L5.82704 12.7587L7.24126 14.1729ZM13.4243 8.83848L15.1615 10.5757L16.5757 9.16152L14.8385 7.42426L13.4243 8.83848ZM15.1615 11.4243L9.82704 16.7587L11.2413 18.1729L16.5757 12.8385L15.1615 11.4243ZM8.96711 17.2902L6.71955 18.0394L7.352 19.9368L9.59956 19.1876L8.96711 17.2902ZM9.82704 16.7587C9.60895 16.9768 9.56476 17.0179 9.52187 17.0503L10.7263 18.6469C10.9059 18.5114 11.0609 18.3533 11.2413 18.1729L9.82704 16.7587ZM9.59957 19.1876C9.84152 19.1069 10.0523 19.039 10.2537 18.939L9.36433 17.1476C9.31621 17.1715 9.25971 17.1927 8.96711 17.2902L9.59957 19.1876ZM9.52186 17.0503C9.47248 17.0875 9.41974 17.1201 9.36433 17.1476L10.2537 18.939C10.42 18.8564 10.5782 18.7587 10.7263 18.6469L9.52186 17.0503ZM15.1615 10.5757C15.3712 10.7854 15.4854 10.9007 15.5611 10.9899C15.6292 11.0701 15.6057 11.0614 15.5858 11L17.4879 10.382C17.3938 10.0922 17.2342 9.87036 17.0857 9.69551C16.9449 9.5296 16.7621 9.34786 16.5757 9.16152L15.1615 10.5757ZM16.5757 12.8385C16.7621 12.6521 16.9449 12.4704 17.0858 12.3045C17.2342 12.1296 17.3938 11.9078 17.4879 11.618L15.5858 11C15.6057 10.9386 15.6292 10.9299 15.5611 11.0101C15.4854 11.0993 15.3712 11.2146 15.1615 11.4243L16.5757 12.8385ZM15.5858 11V11L17.4879 11.618C17.6184 11.2163 17.6184 10.7837 17.4879 10.382L15.5858 11ZM12.5757 8.83848C12.7854 8.6288 12.9007 8.51462 12.9899 8.43892C13.0701 8.37079 13.0614 8.39427 13 8.41421L12.382 6.5121C12.0922 6.60624 11.8703 6.76581 11.6955 6.91424C11.5296 7.05509 11.3479 7.23792 11.1615 7.42426L12.5757 8.83848ZM14.8385 7.42427C14.6521 7.23792 14.4704 7.05509 14.3045 6.91424C14.1296 6.76581 13.9077 6.60624 13.618 6.5121L13 8.41421C12.9386 8.39427 12.9299 8.3708 13.0101 8.43892C13.0993 8.51462 13.2146 8.6288 13.4243 8.83848L14.8385 7.42427ZM13 8.41421H13L13.618 6.5121C13.2163 6.38158 12.7836 6.38158 12.382 6.5121L13 8.41421ZM6.70979 15.0329C6.80732 14.7403 6.82848 14.6838 6.85238 14.6357L5.06102 13.7462C4.961 13.9477 4.89307 14.1585 4.81242 14.4004L6.70979 15.0329ZM5.82704 12.7587C5.6467 12.9391 5.48856 13.0941 5.35311 13.2736L6.94974 14.4781C6.98209 14.4352 7.02317 14.391 7.24126 14.1729L5.82704 12.7587ZM6.85238 14.6357C6.87989 14.5802 6.91248 14.5275 6.94974 14.4781L5.35311 13.2736C5.24134 13.4218 5.14355 13.58 5.06102 13.7462L6.85238 14.6357ZM4.06323 16.648C3.90669 17.1176 3.76638 17.5354 3.6865 17.8753C3.61012 18.2004 3.53795 18.6437 3.69732 19.0906L5.58113 18.4189C5.62464 18.5409 5.57597 18.5775 5.63347 18.3328C5.68749 18.1029 5.79145 17.7879 5.9606 17.2804L4.06323 16.648ZM6.71955 18.0394C6.21209 18.2085 5.89704 18.3125 5.66718 18.3665C5.42248 18.424 5.4591 18.3753 5.58113 18.4189L4.90937 20.3027C5.35628 20.462 5.79962 20.3899 6.12469 20.3135C6.46459 20.2336 6.88237 20.0933 7.352 19.9368L6.71955 18.0394ZM3.69732 19.0906C3.89895 19.6561 4.34392 20.101 4.90937 20.3027L5.58113 18.4189L5.58113 18.4189L3.69732 19.0906ZM14.2929 5.70711L18.2929 9.70711L19.7071 8.29289L15.7071 4.29289L14.2929 5.70711Z" fill="#3D3D3D"/>
</svg>
