<svg width="22" height="22" viewBox="0 0 22 22" fill="none" xmlns="http://www.w3.org/2000/svg">
<path d="M1.83333 8.24992V5.95825C1.83333 3.67575 3.67583 1.83325 5.95833 1.83325H8.25" stroke="#3D3D3D" stroke-width="1.5" stroke-linejoin="round"/>
<path d="M13.75 1.83325H16.0417C18.3242 1.83325 20.1667 3.67575 20.1667 5.95825V8.24992" stroke="#292D32" stroke-width="1.5" stroke-linecap="round" stroke-linejoin="round"/>
<path d="M20.1667 14.6667V16.0417C20.1667 18.3242 18.3242 20.1667 16.0417 20.1667H14.6667" stroke="#292D32" stroke-width="1.5" stroke-linecap="round" stroke-linejoin="round"/>
<path d="M8.25 20.1667H5.95833C3.67583 20.1667 1.83333 18.3242 1.83333 16.0417V13.75" stroke="#292D32" stroke-width="1.5" stroke-linecap="round" stroke-linejoin="round"/>
<path d="M15.5833 8.70825V13.2916C15.5833 15.1249 14.6667 16.0416 12.8333 16.0416H9.16667C7.33333 16.0416 6.41667 15.1249 6.41667 13.2916V8.70825C6.41667 6.87492 7.33333 5.95825 9.16667 5.95825H12.8333C14.6667 5.95825 15.5833 6.87492 15.5833 8.70825Z" stroke="#292D32" stroke-width="1.5" stroke-linecap="round" stroke-linejoin="round"/>
<path d="M17.4167 11H4.58333" stroke="#292D32" stroke-width="1.5" stroke-linecap="round" stroke-linejoin="round"/>
</svg>
