<svg width="42" height="42" viewBox="0 0 42 42" fill="none" xmlns="http://www.w3.org/2000/svg">
<path d="M3.5 15.75V11.375C3.5 7.0175 7.0175 3.5 11.375 3.5H15.75" stroke="white" stroke-width="2.5" stroke-linecap="round" stroke-linejoin="round"/>
<path d="M26.25 3.5H30.625C34.9825 3.5 38.5 7.0175 38.5 11.375V15.75" stroke="white" stroke-width="2.5" stroke-linecap="round" stroke-linejoin="round"/>
<path d="M38.5 28V30.625C38.5 34.9825 34.9825 38.5 30.625 38.5H28" stroke="white" stroke-width="2.5" stroke-linecap="round" stroke-linejoin="round"/>
<path d="M15.75 38.5H11.375C7.0175 38.5 3.5 34.9825 3.5 30.625V26.25" stroke="white" stroke-width="2.5" stroke-linecap="round" stroke-linejoin="round"/>
<path d="M29.75 16.625V25.375C29.75 28.875 28 30.625 24.5 30.625H17.5C14 30.625 12.25 28.875 12.25 25.375V16.625C12.25 13.125 14 11.375 17.5 11.375H24.5C28 11.375 29.75 13.125 29.75 16.625Z" stroke="white" stroke-width="2.5" stroke-linecap="round" stroke-linejoin="round"/>
<path d="M33.25 21H8.75" stroke="white" stroke-width="2.5" stroke-linecap="round" stroke-linejoin="round"/>
</svg>
